<?xml version="1.0" encoding="iso-8859-1"?>
<!-- Generator: Adobe Illustrator 19.0.0, SVG Export Plug-In . SVG Version: 6.00 Build 0)  -->
<svg version="1.1" id="Layer_1" xmlns="http://www.w3.org/2000/svg" xmlns:xlink="http://www.w3.org/1999/xlink" x="0px" y="0px"
	 viewBox="0 0 512 512" style="enable-background:new 0 0 512 512;" xml:space="preserve" fill="#424242">
<g>
	<g>
		<g>
			<path d="M256,0C161.896,0,85.333,76.563,85.333,170.667c0,64.25,28.979,100.094,48.156,123.813
				c8.5,10.51,15.844,19.594,15.844,25.521v21.333c0,15.725,8.642,29.333,21.333,36.733v67.35c0,11.229,4.552,22.229,12.5,30.167
				l20.792,20.792C214.031,506.448,227.427,512,241.677,512h28.646c14.25,0,27.646-5.552,37.719-15.625l20.792-20.792
				c7.948-7.938,12.5-18.938,12.5-30.167v-67.35c12.691-7.4,21.333-21.008,21.333-36.733V320c0-5.927,7.344-15.01,15.844-25.521
				c19.177-23.719,48.156-59.563,48.156-123.813C426.667,76.563,350.104,0,256,0z M292.958,481.292
				c-6.052,6.042-14.083,9.375-22.635,9.375h-28.646c-8.552,0-16.583-3.333-22.635-9.375l-11.958-11.958h97.833L292.958,481.292z
				 M320,445.417c0,0.889-0.406,1.706-0.518,2.583H192.518c-0.112-0.878-0.518-1.694-0.518-2.583v-18.75h128V445.417z M320,405.333
				H192V384h128V405.333z M361.917,281.073c-11.5,14.219-20.583,25.458-20.583,38.927v21.333c0,11.76-9.573,21.333-21.333,21.333
				H192c-11.76,0-21.333-9.573-21.333-21.333V320c0-13.469-9.083-24.708-20.583-38.927c-18.323-22.667-43.417-53.708-43.417-110.406
				c0-82.344,66.99-149.333,149.333-149.333s149.333,66.99,149.333,149.333C405.333,227.365,380.24,258.406,361.917,281.073z"/>
			<path d="M256,149.333h21.333c5.896,0,10.667-4.771,10.667-10.667c0-5.896-4.771-10.667-10.667-10.667h-10.667
				c0-5.896-4.771-10.667-10.667-10.667s-10.667,4.771-10.667,10.667v1.965C232.944,134.383,224,146.112,224,160
				c0,17.646,14.354,32,32,32c5.885,0,10.667,4.781,10.667,10.667c0,5.885-4.781,10.667-10.667,10.667h-21.333
				c-5.896,0-10.667,4.771-10.667,10.667s4.771,10.667,10.667,10.667h10.667c0,5.896,4.771,10.667,10.667,10.667
				s10.667-4.771,10.667-10.667v-1.965C279.056,228.284,288,216.555,288,202.667c0-17.646-14.354-32-32-32
				c-5.885,0-10.667-4.781-10.667-10.667S250.115,149.333,256,149.333z"/>
		</g>
	</g>
</g>
<g>
</g>
<g>
</g>
<g>
</g>
<g>
</g>
<g>
</g>
<g>
</g>
<g>
</g>
<g>
</g>
<g>
</g>
<g>
</g>
<g>
</g>
<g>
</g>
<g>
</g>
<g>
</g>
<g>
</g>
</svg>
